<svg xmlns="http://www.w3.org/2000/svg" width="880" height="200" viewBox="0 0 880 200" role="img"><rect width="880" height="200" fill="#000000"/><line x1="44" y1="132.0" x2="864" y2="132.0" stroke="#FFFFFF" stroke-opacity="0.08"/><text x="36" y="135.0" font-family="ui-monospace,'JetBrains Mono','Fira Code','SF Mono',Menlo,Consolas,monospace" font-size="10" fill="#666666" font-weight="normal" text-anchor="end">6</text><line x1="44" y1="94.0" x2="864" y2="94.0" stroke="#FFFFFF" stroke-opacity="0.08"/><text x="36" y="97.0" font-family="ui-monospace,'JetBrains Mono','Fira Code','SF Mono',Menlo,Consolas,monospace" font-size="10" fill="#666666" font-weight="normal" text-anchor="end">12</text><line x1="44" y1="56.0" x2="864" y2="56.0" stroke="#FFFFFF" stroke-opacity="0.08"/><text x="36" y="59.0" font-family="ui-monospace,'JetBrains Mono','Fira Code','SF Mono',Menlo,Consolas,monospace" font-size="10" fill="#666666" font-weight="normal" text-anchor="end">17</text><line x1="44" y1="18.0" x2="864" y2="18.0" stroke="#FFFFFF" stroke-opacity="0.08"/><text x="36" y="21.0" font-family="ui-monospace,'JetBrains Mono','Fira Code','SF Mono',Menlo,Consolas,monospace" font-size="10" fill="#666666" font-weight="normal" text-anchor="end">23</text><polyline points="44.0,170.0 59.8,163.4 75.5,170.0 91.3,163.4 107.1,170.0 122.8,163.4 138.6,170.0 154.4,170.0 170.2,156.8 185.9,170.0 201.7,170.0 217.5,170.0 233.2,156.8 249.0,170.0 264.8,163.4 280.5,170.0 296.3,170.0 312.1,170.0 327.8,156.8 343.6,170.0 359.4,170.0 375.2,163.4 390.9,163.4 406.7,170.0 422.5,170.0 438.2,170.0 454.0,170.0 469.8,170.0 485.5,170.0 501.3,170.0 517.1,170.0 532.8,170.0 548.6,170.0 564.4,170.0 580.2,170.0 595.9,156.8 611.7,170.0 627.5,156.8 643.2,163.4 659.0,156.8 674.8,163.4 690.5,163.4 706.3,170.0 722.1,170.0 737.8,163.4 753.6,170.0 769.4,170.0 785.2,163.4 800.9,143.6 816.7,150.2 832.5,137.0 848.2,143.6 864.0,18.0" fill="none" stroke="#FFFFFF" stroke-width="1.6"/><rect x="57.8" y="161.4" width="4" height="4" fill="#B0B0B0"/><rect x="89.3" y="161.4" width="4" height="4" fill="#B0B0B0"/><rect x="120.8" y="161.4" width="4" height="4" fill="#B0B0B0"/><rect x="168.2" y="154.8" width="4" height="4" fill="#B0B0B0"/><rect x="231.2" y="154.8" width="4" height="4" fill="#B0B0B0"/><rect x="262.8" y="161.4" width="4" height="4" fill="#B0B0B0"/><rect x="325.8" y="154.8" width="4" height="4" fill="#B0B0B0"/><rect x="373.2" y="161.4" width="4" height="4" fill="#B0B0B0"/><rect x="388.9" y="161.4" width="4" height="4" fill="#B0B0B0"/><rect x="593.9" y="154.8" width="4" height="4" fill="#B0B0B0"/><rect x="625.5" y="154.8" width="4" height="4" fill="#B0B0B0"/><rect x="641.2" y="161.4" width="4" height="4" fill="#B0B0B0"/><rect x="657.0" y="154.8" width="4" height="4" fill="#B0B0B0"/><rect x="672.8" y="161.4" width="4" height="4" fill="#B0B0B0"/><rect x="688.5" y="161.4" width="4" height="4" fill="#B0B0B0"/><rect x="735.8" y="161.4" width="4" height="4" fill="#B0B0B0"/><rect x="783.2" y="161.4" width="4" height="4" fill="#B0B0B0"/><rect x="798.9" y="141.6" width="4" height="4" fill="#B0B0B0"/><rect x="814.7" y="148.2" width="4" height="4" fill="#B0B0B0"/><rect x="830.5" y="135.0" width="4" height="4" fill="#B0B0B0"/><rect x="846.2" y="141.6" width="4" height="4" fill="#B0B0B0"/><rect x="862.0" y="16.0" width="4" height="4" fill="#B0B0B0"/><text x="44" y="192" font-family="ui-monospace,'JetBrains Mono','Fira Code','SF Mono',Menlo,Consolas,monospace" font-size="10" fill="#666666" font-weight="normal" text-anchor="start">-52W</text><text x="864" y="192" font-family="ui-monospace,'JetBrains Mono','Fira Code','SF Mono',Menlo,Consolas,monospace" font-size="10" fill="#666666" font-weight="normal" text-anchor="end">NOW</text></svg>